<svg xmlns="http://www.w3.org/2000/svg" viewBox="0 0 512 512" fill="none">
  <!-- Большая звезда (центр) -->
  <path d="M256 80 L278 190 L388 168 L298 240 L340 348 L256 278 L172 348 L214 240 L124 168 L234 190Z" fill="#84CC16" opacity="0.9"/>
  <!-- Малая звезда (верх-право) -->
  <path d="M390 80 L400 126 L446 116 L410 144 L428 190 L390 160 L352 190 L370 144 L334 116 L380 126Z" fill="#059669" opacity="0.8"/>
  <!-- Крошечная звезда (низ-лево) -->
  <path d="M130 330 L137 360 L167 354 L145 372 L155 402 L130 382 L105 402 L115 372 L93 354 L123 360Z" fill="#14B8A6" opacity="0.8"/>
  <!-- Блики-точки -->
  <circle cx="420" cy="300" r="14" fill="#84CC16" opacity="0.6"/>
  <circle cx="100" cy="180" r="10" fill="#059669" opacity="0.5"/>
  <circle cx="350" cy="400" r="8" fill="#14B8A6" opacity="0.6"/>
</svg>
