<svg xmlns="http://www.w3.org/2000/svg" viewBox="0 0 512 512" fill="none">
  <!-- Волна 1 -->
  <path d="M60 160 Q120 120 180 160 Q240 200 300 160 Q340 132 380 148" stroke="#84CC16" stroke-width="28" stroke-linecap="round" fill="none"/>
  <!-- Завиток 1 -->
  <path d="M380 148 Q420 130 420 160 Q420 190 380 184" stroke="#84CC16" stroke-width="28" stroke-linecap="round" fill="none"/>
  <!-- Волна 2 -->
  <path d="M60 256 Q130 216 200 256 Q270 296 340 256 Q390 228 430 244" stroke="#059669" stroke-width="28" stroke-linecap="round" fill="none"/>
  <!-- Завиток 2 -->
  <path d="M430 244 Q470 226 470 256 Q470 286 430 280" stroke="#059669" stroke-width="28" stroke-linecap="round" fill="none"/>
  <!-- Волна 3 (короче) -->
  <path d="M60 352 Q110 312 160 352 Q210 392 260 352 Q300 322 330 338" stroke="#14B8A6" stroke-width="28" stroke-linecap="round" fill="none"/>
  <!-- Завиток 3 -->
  <path d="M330 338 Q362 322 362 348 Q362 374 330 368" stroke="#14B8A6" stroke-width="28" stroke-linecap="round" fill="none"/>
</svg>
