<svg xmlns="http://www.w3.org/2000/svg" viewBox="0 0 512 512" fill="none">
  <!-- Жидкость внутри -->
  <path d="M160 380 Q170 340 200 320 L312 320 Q342 340 352 380 Q370 420 360 450 Q350 470 256 470 Q162 470 152 450 Q142 420 160 380Z" fill="#059669" opacity="0.3"/>
  <!-- Пузырьки -->
  <circle cx="220" cy="400" r="10" fill="#059669" opacity="0.5"/>
  <circle cx="270" cy="420" r="7" fill="#059669" opacity="0.4"/>
  <circle cx="300" cy="390" r="12" fill="#059669" opacity="0.35"/>
  <!-- Тело колбы -->
  <path d="M200 280 L160 360 Q130 420 130 450 Q130 480 160 490 Q190 500 256 500 Q322 500 352 490 Q382 480 382 450 Q382 420 352 360 L312 280Z" stroke="#059669" stroke-width="18" fill="none" stroke-linejoin="round"/>
  <!-- Горлышко -->
  <rect x="210" y="80" width="92" height="210" rx="8" stroke="#059669" stroke-width="18" fill="none"/>
  <!-- Пробка/крышка горлышка -->
  <rect x="196" y="72" width="120" height="24" rx="8" fill="#059669"/>
  <!-- Деления на колбе -->
  <line x1="170" y1="420" x2="195" y2="420" stroke="#059669" stroke-width="8" stroke-linecap="round"/>
  <line x1="158" y1="450" x2="185" y2="450" stroke="#059669" stroke-width="8" stroke-linecap="round"/>
</svg>
